<?xml version="1.0" encoding="UTF-8"?><svg id="a" xmlns="http://www.w3.org/2000/svg" viewBox="0 0 1830.5 260.2"><path d="M74.11,260.2c-25.89,0-54.96-6.66-70.7-16.2l-3.41-2.07,11.87-35.81,5.28,2.96c17.02,9.52,39.2,15.2,59.33,15.2,31.36,0,50.84-13.95,50.84-36.4,0-20-12.27-31.39-46.88-43.5-23.83-7.69-41.29-16.8-53.36-27.87-13.62-12.49-20.53-27.84-20.53-45.63,0-20.06,9.11-38.2,25.64-51.06C48.85,6.85,71.56,0,97.87,0c32.33,0,52.28,7.79,61.29,12.44l3.94,2.03-12.98,34.92-4.97-2.47c-10.12-5.02-26.74-11-48.47-11s-45.29,9.7-45.29,31.36c0,18.61,12.08,28.84,49.72,42.08,50.08,17.57,71.45,40.3,71.45,76,0,20.8-8.86,39.55-24.93,52.82-17.47,14.41-42.89,22.02-73.52,22.02Z"/><path d="M14.71,213.44c15.44,8.64,38.02,15.84,61.78,15.84,35.24,0,55.84-16.92,55.84-41.4,0-22.68-14.26-35.64-50.29-48.24C38.47,125.6,11.54,105.08,11.54,70.88,11.54,33.08,46,5,97.87,5c27.32,0,47.12,5.76,59,11.88l-9.5,25.56c-8.71-4.32-26.53-11.52-50.69-11.52-36.43,0-50.29,19.8-50.29,36.36,0,22.68,16.24,33.84,53.06,46.8,45.14,15.84,68.11,35.64,68.11,71.28,0,37.44-30.49,69.84-93.46,69.84-25.74,0-53.86-6.84-68.11-15.48l8.71-26.28Z"/><path d="M396.53,256.6l-6.07-111.29c-1.16-23.03-2.52-49.94-3.14-74.43-5.97,19.68-12.81,40.58-20.66,63.19l-41.86,121.08h-29.77l-38.4-119.02c-7.68-24.01-13.74-44.18-18.62-62.09-.85,23.29-2.04,49.14-3.44,73.8l-6.44,108.76h-38.44L206.44,3.96h46.24l40.47,120.77c8.23,25.67,14.35,46.37,19.11,64.73,4.88-18.1,11.29-38.81,19.98-64.73L374.46,3.96h46.22l14.96,252.64h-39.11Z"/><path d="M395.46,145.04c-1.71-33.84-3.76-74.52-3.42-104.76h-1.03c-7.87,28.44-17.44,58.68-29.07,92.16l-40.7,117.72h-22.57l-37.28-115.56c-10.94-34.2-20.18-65.52-26.68-94.32h-.68c-.68,30.24-2.39,70.92-4.45,107.28l-6.16,104.04h-28.39L211.12,8.96h37.96l39.33,117.36c9.58,29.88,17.44,56.52,23.26,81.72h1.03c5.81-24.48,14.02-51.12,24.28-81.72L378.01,8.96h37.96l14.36,242.64h-29.07l-5.81-106.56Z"/><path d="M612.3,256.6l-24.62-76.32h-74.42l-23.94,76.32h-41.32L529.54,3.96h43.18l81.9,252.64h-42.32Zm-34.01-110.8l-20.46-63.3c-2.98-9.21-5.39-17.92-7.55-26.34-2.42,9.39-4.77,17.86-7.19,25.89l-20.5,63.76h55.69Z"/><path d="M509.58,175.28l-23.94,76.32h-30.78L533.18,8.96h35.91l78.66,242.64h-31.81l-24.62-76.32h-81.74Zm75.58-24.48l-22.57-69.84c-5.13-15.84-8.55-30.24-11.97-44.28h-.68c-3.42,14.4-7.18,29.16-11.63,43.92l-22.57,70.2h69.42Z"/><polygon points="669.52 256.6 669.52 3.96 709.28 3.96 709.28 220.32 807.77 220.32 807.77 256.6 669.52 256.6"/><path d="M674.52,8.96h29.75V225.32h98.5v26.28h-128.25V8.96Z"/><polygon points="824.07 256.6 824.07 3.96 863.82 3.96 863.82 220.32 962.32 220.32 962.32 256.6 824.07 256.6"/><path d="M829.07,8.96h29.75V225.32h98.49v26.28h-128.25V8.96Z"/><path d="M1233.59,256.6l-6.07-111.29c-1.16-23.02-2.52-49.93-3.14-74.43-5.97,19.68-12.81,40.58-20.66,63.19l-41.86,121.08h-29.77l-38.4-119.02c-7.68-24.01-13.74-44.18-18.62-62.09-.85,23.29-2.05,49.13-3.44,73.8l-6.43,108.76h-38.44L1043.5,3.96h46.24l40.47,120.77c8.23,25.67,14.34,46.36,19.1,64.73,4.88-18.1,11.29-38.82,19.98-64.73L1211.52,3.96h46.22l14.96,252.64h-39.11Z"/><path d="M1232.51,145.04c-1.71-33.84-3.76-74.52-3.42-104.76h-1.03c-7.87,28.44-17.44,58.68-29.07,92.16l-40.7,117.72h-22.57l-37.28-115.56c-10.94-34.2-20.18-65.52-26.68-94.32h-.68c-.68,30.24-2.39,70.92-4.45,107.28l-6.15,104.04h-28.39l16.07-242.64h37.96l39.33,117.36c9.58,29.88,17.44,56.52,23.26,81.72h1.03c5.81-24.48,14.02-51.12,24.28-81.72l41.04-117.36h37.96l14.36,242.64h-29.07l-5.81-106.56Z"/><path d="M1449.35,256.6l-24.62-76.32h-74.42l-23.94,76.32h-41.32L1366.59,3.96h43.18l81.9,252.64h-42.32Zm-34.01-110.8l-20.46-63.3c-2.98-9.21-5.39-17.92-7.55-26.34-2.42,9.39-4.77,17.85-7.19,25.89l-20.5,63.76h55.7Z"/><path d="M1346.63,175.28l-23.94,76.32h-30.78L1370.23,8.96h35.91l78.66,242.64h-31.81l-24.62-76.32h-81.74Zm75.58-24.48l-22.57-69.84c-5.13-15.84-8.55-30.24-11.97-44.28h-.68c-3.42,14.4-7.18,29.16-11.63,43.92l-22.57,70.2h69.43Z"/><path d="M1636.4,256.6l-73.69-115.66-16.37,19.93v95.73h-39.75V3.96h39.75V111.19c3.1-4.44,6.43-9.09,10.12-14.11L1628.48,3.96h49.88l-87.77,108.3,92.95,144.34h-47.13Z"/><path d="M1511.58,8.96h29.75V125.96h1.03c6.16-9.36,12.31-18,18.12-25.92l70.45-91.08h36.94l-83.45,102.96,89.94,139.68h-35.22l-75.92-119.16-21.89,26.64v92.52h-29.75V8.96Z"/><polygon points="1690.88 256.6 1690.88 3.96 1825.37 3.96 1825.37 40.24 1730.63 40.24 1730.63 106.92 1820.24 106.92 1820.24 142.84 1730.63 142.84 1730.63 220.32 1830.5 220.32 1830.5 256.6 1690.88 256.6"/><path d="M1815.24,137.84h-89.6v87.48h99.86v26.28h-129.62V8.96h124.49v26.28h-94.73V111.92h89.6v25.92Z"/></svg>